<svg id="Layer_1" enable-background="new 0 0 128 128" height="512" viewBox="0 0 128 128" width="512" xmlns="http://www.w3.org/2000/svg"><path d="m117.193 89.297-2.39-16.939 10.986-34.405s-1.14-.014-2.928.404l.959-3.003c.093-.291.042-.608-.137-.857-.178-.248-.464-.396-.77-.4-.267.017-6.483-.016-12.788 5.465-.402.349-.444.959-.095 1.361.006.007.014.009.021.016-.418.392-.834.816-1.248 1.263-.007-.006-.009-.015-.016-.021-.403-.347-1.012-.303-1.36.1-1.262 1.463-2.426 3.12-3.459 4.923-.265.462-.105 1.051.357 1.316.007.004.014.005.021.008-.256.476-.508.966-.754 1.477-.006-.003-.009-.008-.015-.011-.484-.218-1.057-.003-1.275.483-1.416 3.14-2.547 6.718-3.367 10.649-1.654-.862-5.012-2.522-9.694-4.42-.23-3.554.435-6.934.435-6.934-.93.372-1.711.844-2.382 1.363.096-2.27.435-4.038.441-4.069.068-.347-.058-.702-.331-.928-.272-.225-.646-.284-.974-.153-4.423 1.77-5.967 5.461-6.479 7.34-4.659-1.517-9.353-2.763-13.993-3.736-.199-.982-.292-1.921-.292-2.81 0-7.543 6.392-11.753 6.392-11.753-1.453-.259-2.842-.425-4.177-.517 1.002-1.012 1.8-1.556 1.822-1.57.328-.218.492-.614.411-1-.08-.385-.386-.685-.774-.753-22.331-3.986-31.06 12.598-32.595 15.991-4.961.275-9.84.935-14.513 1.963-5.301 1.175-10.459 2.847-15.328 4.969-.308.135-.524.42-.57.752 0 0-.046.333-.105.96-.256 3.025-.502 11.361 3.244 19.727l2.381 7.793c.119.39.471.663.878.682.399.025.782-.22.936-.598l.255-.622c.68.837 1.411 1.659 2.211 2.455 2.261 2.251 4.871 4.158 7.811 5.73 7.589 5.263 19.219 8.54 37.005 6.958 0 0 1.25 1.439 4.339 2.359 2.291 1.037 5.616 1.562 11.31.183 3.599-.661 7.916-1.969 13.076-4.284 0 0-.329-.054-.878-.152.294-.133.577-.258.878-.396 0 0-1.285-.433-3.214-1.151.241-.105.479-.204.721-.313.388-.174.616-.581.562-1.003-.007-.052-.017-.102-.032-.151.031-.104.044-.214.038-.326-.021-.395-.281-.735-.655-.862-.037-.012-2.44-.826-5.595-2.063 4.458-2.057 8.927-4.184 12.637-5.973 3.755-1.819 6.724-3.287 8.139-3.99 1.988 1.83 4.923 4.226 8.288 5.995 1.996 1.383 4.261 2.67 6.629 3.478z" fill="#e6e7e8"/><path d="m119.045 31.205s-18.057-.23-23.276 27.53c0 0-4.835-2.73-12.839-5.822-1.096-4.353 0-9.889 0-9.889-5.482 2.193-6.118 7.697-6.118 7.697-4.824-1.612-10.394-3.179-16.479-4.375-1.009-2.303-1.414-4.418-1.414-6.315 0-7.543 6.392-11.753 6.392-11.753-24.208-4.32-31.773 15.974-31.773 15.974-4.901.241-9.922.866-14.955 1.973-5.043 1.118-10.12 2.719-15.152 4.912 0 0-.044.318-.099.91-.536 6.348-1.512 43.811 50.873 39.152 0 0 1.25 1.44 4.339 2.358 2.291 1.037 5.616 1.562 11.31.183 3.599-.661 7.916-1.97 13.076-4.285 0 0-.329-.054-.878-.151.294-.133.577-.257.878-.396 0 0-5.755-1.939-11.276-4.448 5.439-2.467 11.165-5.187 15.738-7.393 5.296-2.566 9.045-4.44 9.045-4.44l.022.022c.384.438 6.721 7.423 13.99 9.9l-2.39-16.939z" fill="#fff"/><path d="m90.28 79.958c-5.296 2.554-12.137 5.8-18.288 8.541 2.631 2.017 13.825 3.849 13.825 3.849-21.796 9.78-28.725 1.743-28.725 1.743-52.385 4.659-51.409-32.804-50.872-39.152 7.149 6.972 36.093 23.331 39.58 24.416 4.704 1.458 53.525-3.837 53.525-3.837s-3.75 1.874-9.045 4.44z" fill="#d4fbff"/><path d="m121.932 34.096s-18.057-.23-23.276 27.53c0 0-4.835-2.73-12.839-5.822-1.096-4.353 0-9.889 0-9.889-5.482 2.193-6.118 7.697-6.118 7.697-4.823-1.612-10.393-3.179-16.478-4.375-1.009-2.303-1.414-4.418-1.414-6.315 0-7.543 6.392-11.753 6.392-11.753-24.208-4.32-31.773 15.974-31.773 15.974-4.901.241-9.922.866-14.955 1.973-5.043 1.118-10.12 2.719-15.152 4.912 0 0-.044.318-.099.91 7.148 6.973 35.813 23.017 39.579 24.416 3.429 1.274 7.42 1.479 13.205.977-1.397 3.06-4.884 11.472-1.912 13.286 3.648 2.228 6.822 8.305 28.725-1.819 0 0-21.959-7.39-21.233-11.999 15.177-1.552 34.74-4.283 34.74-4.283l.022.022c.384.438 6.721 7.423 13.99 9.9l-2.39-16.939z" fill="#0089ef"/><path d="m5.904 69.336s5.208 6.852 18.638 1.37l-1.919 8.497-3.837-6.028-3.563 6.028-3.837-6.028-2.467 6.028z" fill="#fff"/><g fill="#3a2c60"><path d="m119.856 30.62c-.186-.257-.481-.411-.799-.415-.243-.011-6.494-.018-12.812 5.474-.417.362-.461.994-.099 1.411.364.418.995.459 1.411.099 4.014-3.49 8.025-4.536 10.074-4.85l-10.525 32.967c-.046.143-.059.295-.038.443l2.151 15.248c-6.48-2.831-11.955-8.947-12.075-9.078-.306-.306-.77-.379-1.154-.188-.003.001-3.747 1.874-9.033 4.435-5.88 2.836-11.167 5.32-15.717 7.383-.357.162-.587.519-.587.911s.229.748.586.91c3.688 1.676 7.514 3.111 9.653 3.881-4.027 1.699-7.801 2.878-11.274 3.518-4.618 1.118-8.007 1.079-10.662-.123-.041-.019-.084-.034-.127-.047-2.223-.662-3.379-1.599-3.736-1.928-2.064-6.546 1.814-12.622 1.855-12.683.301-.462.172-1.082-.29-1.384-.46-.3-1.079-.174-1.383.287-.176.269-4.08 6.343-2.365 13.399-17.792 1.379-31-2.067-39.25-10.281-1.008-1.004-1.907-2.049-2.714-3.119l.633-1.548 2.8 4.398c.187.293.516.461.86.463.348-.006.667-.191.845-.491l2.733-4.625 2.963 4.653c.186.291.506.463.844.463.057 0 .114-.005.172-.015.397-.069.715-.371.804-.766l1.918-8.497c.082-.363-.045-.742-.329-.982-.285-.242-.681-.304-1.024-.163-12.465 5.086-17.262-.791-17.467-1.054-.068-.088-.151-.16-.24-.219-2.551-7.095-2.348-13.783-2.129-16.368.011-.115.021-.22.03-.313 4.597-1.963 9.451-3.519 14.438-4.625 4.755-1.046 9.73-1.702 14.789-1.95.398-.02.748-.275.888-.648.29-.771 7.135-18.276 28.471-15.67-2.029 1.932-5.026 5.698-5.026 11.098 0 2.188.504 4.447 1.498 6.717.132.3.401.517.724.58 5.414 1.063 10.916 2.524 16.354 4.342.286.095.597.056.852-.104.254-.16.422-.428.459-.726.021-.176.509-3.818 3.85-6.028-.239 2.077-.429 5.432.306 8.347.079.315.307.571.609.688 7.832 3.025 12.66 5.732 12.708 5.76.281.159.621.171.913.035.293-.136.501-.404.561-.722.806-4.286 1.978-8.152 3.483-11.491.227-.504.002-1.096-.501-1.323-.507-.225-1.096-.001-1.323.501-1.411 3.131-2.539 6.694-3.359 10.609-1.857-.966-5.772-2.896-11.266-5.042-.832-3.999.115-8.904.126-8.955.07-.36-.061-.729-.343-.964-.282-.233-.671-.294-1.01-.159-4.409 1.765-5.967 5.432-6.491 7.327-4.998-1.626-10.042-2.954-15.02-3.954-.749-1.852-1.129-3.679-1.129-5.438 0-6.893 5.884-10.879 5.943-10.919.34-.226.51-.637.427-1.037-.083-.399-.4-.71-.803-.781-22.313-3.984-31.059 12.547-32.622 15.992-4.955.275-9.829.935-14.498 1.962-5.306 1.178-10.465 2.851-15.334 4.972-.32.14-.543.435-.591.78 0 0-.047.334-.104.963-.256 3.015-.488 11.304 3.216 19.645l2.41 7.888c.123.404.487.688.91.707.441.024.812-.229.972-.62l.238-.581c.671.825 1.378 1.639 2.167 2.425 8.805 8.768 22.796 12.408 41.592 10.808.622.544 2.008 1.554 4.354 2.263 1.624.724 3.447 1.084 5.542 1.084 1.866 0 3.948-.286 6.298-.856 4.041-.742 8.518-2.208 13.305-4.356.403-.181.64-.604.582-1.042-.006-.049-.017-.098-.029-.145.029-.104.043-.215.037-.327-.022-.409-.292-.763-.68-.894-.05-.018-4.433-1.499-9.151-3.516 4.083-1.873 8.689-4.047 13.729-6.478 3.975-1.926 7.08-3.463 8.386-4.112 1.69 1.783 7.396 7.418 13.913 9.64.329.112.691.045.96-.176.268-.222.401-.566.353-.91l-2.357-16.712 10.915-34.188c.093-.303.04-.632-.144-.89zm-96.698 41.681-.979 4.339-2.175-3.415c.994-.233 2.045-.536 3.154-.924zm-5.844 1.4-2.122 3.59-2.267-3.561c1.286.152 2.743.167 4.389-.029zm-9.513-1.582c.689.389 1.52.765 2.5 1.066l-1.245 3.043z"/><path d="m100.449 44.693c.156.09.327.133.496.133.347 0 .684-.181.868-.503.972-1.694 2.063-3.248 3.243-4.616.36-.419.313-1.05-.104-1.411-.42-.358-1.05-.314-1.411.104-1.263 1.465-2.428 3.123-3.462 4.929-.275.478-.109 1.089.37 1.364z"/><path d="m25.184 57c-1.143 1.668-.717 3.947.951 5.089s3.946.717 5.089-.951.717-3.947-.951-5.089-3.947-.717-5.089.951z"/><path d="m39.37 65.06c-.334.439-.249 1.067.19 1.401.181.138.394.204.604.204.302 0 .601-.136.797-.395l.452-.595c1.696-2.228 1.973-5.279.705-7.774l-1.062-2.091c-.251-.492-.851-.688-1.345-.438-.492.25-.688.852-.438 1.345l1.062 2.091c.923 1.815.721 4.036-.514 5.657z"/><path d="m44.052 65.059c-.334.439-.249 1.067.189 1.402.182.138.395.204.605.204.302 0 .6-.136.797-.394l.453-.596c1.695-2.227 1.972-5.278.704-7.774l-1.062-2.091c-.251-.492-.851-.688-1.345-.438-.492.25-.688.852-.438 1.345l1.062 2.091c.923 1.815.722 4.036-.513 5.656z"/><path d="m48.98 65.368c-.335.438-.251 1.066.188 1.401.181.139.395.205.605.205.302 0 .6-.136.796-.394l.454-.595c1.696-2.228 1.973-5.279.705-7.775l-1.063-2.09c-.251-.493-.853-.688-1.345-.438s-.688.853-.438 1.345l1.063 2.09c.923 1.816.721 4.037-.513 5.657z"/></g></svg>